<?xml version="1.0" encoding="UTF-8" standalone="no"?>
<svg
   xmlns:dc="http://purl.org/dc/elements/1.1/"
   xmlns:cc="http://creativecommons.org/ns#"
   xmlns:rdf="http://www.w3.org/1999/02/22-rdf-syntax-ns#"
   xmlns:svg="http://www.w3.org/2000/svg"
   xmlns="http://www.w3.org/2000/svg"
   xmlns:sodipodi="http://sodipodi.sourceforge.net/DTD/sodipodi-0.dtd"
   xmlns:inkscape="http://www.inkscape.org/namespaces/inkscape"
   width="256px"
   height="288px"
   viewBox="0 0 256 288"
   version="1.1"
   preserveAspectRatio="xMidYMid"
   id="svg6"
   sodipodi:docname="20291403411548141943.svg"
   inkscape:version="0.92.4 (5da689c313, 2019-01-14)">
  <metadata
     id="metadata12">
    <rdf:RDF>
      <cc:Work
         rdf:about="">
        <dc:format>image/svg+xml</dc:format>
        <dc:type
           rdf:resource="http://purl.org/dc/dcmitype/StillImage" />
      </cc:Work>
    </rdf:RDF>
  </metadata>
  <defs
     id="defs10" />
  <sodipodi:namedview
     pagecolor="#ffffff"
     bordercolor="#666666"
     borderopacity="1"
     objecttolerance="10"
     gridtolerance="10"
     guidetolerance="10"
     inkscape:pageopacity="0"
     inkscape:pageshadow="2"
     inkscape:window-width="1920"
     inkscape:window-height="1017"
     id="namedview8"
     showgrid="false"
     inkscape:zoom="0.81944444"
     inkscape:cx="128"
     inkscape:cy="144"
     inkscape:window-x="-8"
     inkscape:window-y="-8"
     inkscape:window-maximized="1"
     inkscape:current-layer="svg6" />
  <g
     fill-rule="evenodd"
     id="g4">
    <path
       d="M152.575995,32.9634453 L211.722058,67.1124427 C213.387503,65.348329 215.332859,63.7907081 217.539734,62.5088708 C229.806457,55.4573413 245.452038,59.6441869 252.577021,71.9109101 C259.62855,84.1776333 255.441705,99.8232143 243.174982,106.948197 C240.984974,108.207124 238.684929,109.10784 236.343812,109.66832 L236.343812,177.99302 C238.659582,178.554683 240.934429,179.449686 243.101528,180.695443 C255.441705,187.820426 259.62855,203.466007 252.503568,215.73273 C245.452038,227.999453 229.733004,232.186299 217.46628,225.13477 C215.024105,223.730884 212.902189,221.983449 211.125456,219.988103 L152.340162,253.928803 C153.180519,256.46808 153.635248,259.18431 153.635248,262.008393 C153.635248,276.111452 142.176512,287.64364 128,287.64364 C113.823488,287.64364 102.364752,276.184905 102.364752,262.008393 C102.364752,259.488481 102.726802,257.054441 103.40181,254.755362 L44.2714887,220.615454 C42.6238257,222.34493 40.705394,223.873378 38.5337196,225.13477 C26.193543,232.186299 10.547962,227.999453 3.49643248,215.73273 C-3.55509701,203.466007 0.631748621,187.820426 12.8984718,180.695443 C15.0673397,179.448669 17.3418356,178.553222 19.6561876,177.991646 L19.6561876,109.66832 C17.3150714,109.10784 15.0150257,108.207124 12.8250184,106.948197 C0.558295189,99.8966677 -3.62855044,84.1776333 3.42297904,71.9109101 C10.4745085,59.6441869 26.193543,55.4573413 38.4602662,62.5088708 C40.6551374,63.7837361 42.5913269,65.3313931 44.2507413,67.0836756 L103.41276,32.9254664 C102.730718,30.6154532 102.364752,28.1687503 102.364752,25.6352478 C102.364752,11.4587354 113.823488,0 128,0 C142.176512,0 153.635248,11.4587354 153.635248,25.6352478 C153.635248,28.1826393 153.265258,30.6422768 152.575995,32.9634453 Z M146.413638,43.4848713 L205.700555,77.715193 C203.867899,84.1516888 204.540515,91.2885638 208.137694,97.5461579 C211.746601,103.824151 217.625783,107.985785 224.150543,109.607654 L224.150543,178.017842 C223.818032,178.099463 223.48718,178.187674 223.158201,178.282419 L145.72529,44.1686182 C145.959017,43.9450469 146.18851,43.7170876 146.413638,43.4848713 Z M110.29093,44.1841203 L32.8593279,178.295656 C32.524559,178.19844 32.1878611,178.108015 31.8494573,178.024438 L31.8494573,109.607654 C38.3742168,107.985785 44.2533992,103.824151 47.8623055,97.5461579 C51.466599,91.276189 52.1347497,84.1234583 50.2885426,77.6770157 L109.558747,43.4563434 C109.797913,43.7038019 110.042027,43.9464469 110.29093,44.1841203 Z M135.162749,50.259763 L212.576817,184.340928 C210.844241,185.99279 209.317376,187.91755 208.064241,190.097482 C206.818484,192.264581 205.923481,194.539429 205.361818,196.855198 L50.6395564,196.855198 C50.0779798,194.540846 49.1825333,192.26635 47.9357589,190.097482 C46.6776713,187.931497 45.1539248,186.017428 43.4300297,184.372667 L120.858821,50.2659993 C123.124941,50.9200822 125.520915,51.2704957 128,51.2704957 C130.486952,51.2704957 132.890265,50.9178547 135.162749,50.259763 Z M146.958084,244.737995 L205.860107,210.729899 C205.683398,210.174924 205.525483,209.614096 205.38664,209.048468 L50.6067643,209.048468 C50.5246888,209.380792 50.4360084,209.711472 50.3407792,210.040295 L109.531782,244.215239 C114.192298,239.378545 120.739739,236.373145 128,236.373145 C135.518379,236.373145 142.272352,239.596041 146.958084,244.737995 Z"
       fill="#E535AB"
       id="path2" />
  </g>
  <path
     style="fill:#000000;stroke-width:1.22033894"
     d="m 121.61035,286.35934 c -11.48046,-3.67201 -18.21963,-12.73074 -18.47045,-24.8278 l -0.15685,-7.56509 -29.265605,-16.90723 C 55.360998,226.4544 43.938625,220.53814 43.075059,221.18787 c -6.198822,4.66388 -8.826947,5.79985 -14.508342,6.27099 C 17.217754,228.40001 8.2773443,223.60606 3.3427708,213.93349 1.375167,210.07667 0.93178652,207.34705 1.3094667,201.4157 1.9410307,191.49718 6.0892742,184.99853 14.514056,180.72937 l 6.096113,-3.08913 v -34.02955 -34.02956 l -3.470683,-1.20988 C 12.196235,106.64802 4.6687688,99.693454 2.7334779,95.061651 -1.7681823,84.287662 2.3649285,70.08089 11.728609,64.142619 21.209125,58.130254 32.310171,58.364354 40.762808,64.754894 L 44.44087,67.53566 73.711961,50.654752 102.98305,33.773843 103.12182,26.71065 c 0.16217,-8.253999 1.40594,-11.797846 6.09748,-17.3734317 9.47304,-11.2580652 28.08836,-11.2580652 37.5614,0 4.6929,5.5771887 5.93535,9.1195787 6.09748,17.3845907 l 0.13877,7.074353 29.26053,16.877807 29.26052,16.877806 3.68863,-2.788823 c 16.46812,-12.450889 39.68862,-0.70952 39.68862,20.068418 0,3.545977 -0.8847,8.311626 -1.96602,10.590334 -2.33277,4.915916 -9.23056,11.255976 -14.08872,12.949546 l -3.47068,1.20988 v 34.02956 34.02955 l 6.16052,3.12176 c 18.80327,9.52835 17.8529,36.95256 -1.56171,45.0645 -8.32072,3.47662 -20.88697,1.77358 -25.18891,-3.41374 -0.92117,-1.11074 -2.56863,-2.01024 -3.66101,-1.99889 -1.0924,0.011 -14.61669,7.36132 -30.05397,16.33324 l -28.0678,16.31257 -0.14317,7.99513 c -0.18142,10.13102 -4.21952,17.65543 -11.88637,22.1485 -5.82822,3.41556 -14.26792,4.79017 -19.37706,3.15603 z m -3.41691,-47.21075 c 6.58899,-2.99524 18.05689,-1.83031 24.25313,2.46369 l 4.94216,3.42493 29.33823,-16.89827 c 16.13603,-9.29404 29.34645,-17.5847 29.35649,-18.42369 0.0144,-1.20465 -16.42626,-1.52542 -78.18514,-1.52542 -53.941538,0 -78.071242,0.39645 -77.777429,1.2779 0.234282,0.70284 13.596994,8.89397 29.694915,18.20251 27.009554,15.61813 29.457354,16.78857 31.709624,15.16231 1.34238,-0.96926 4.34299,-2.62705 6.66802,-3.68396 z m 88.57783,-44.68757 c 0.45873,-1.51017 2.07943,-4.41028 3.60156,-6.44469 l 2.76752,-3.69892 -38.69327,-66.99101 -38.69329,-66.991006 h -7.73691 -7.7369 l -38.70089,67.003176 -38.700886,67.00318 2.75824,3.68675 c 1.517033,2.02772 3.133563,4.92235 3.592287,6.43252 l 0.834045,2.74576 H 128 205.93722 Z M 72.935124,109.95254 C 93.813459,73.708475 110.43447,43.899019 109.8707,43.709306 109.30693,43.519595 95.682711,50.933154 79.594649,60.183882 l -29.251023,16.819508 0.03557,7.322034 c 0.05264,10.833294 -5.341498,19.337546 -14.819877,23.364626 l -3.966102,1.68508 v 35.02479 c 0,29.8917 0.247774,34.76289 1.690647,33.23786 0.929857,-0.98281 18.772922,-31.44117 39.651257,-67.68524 z m 151.471656,34.33434 v -34.61481 l -5.78573,-2.97744 C 210.30248,102.41374 205.62108,94.497847 205.49561,84.500518 L 205.40151,77.00339 176.2873,60.18075 c -16.01281,-9.252452 -29.57973,-16.666011 -30.14873,-16.474577 -0.56899,0.191436 15.7542,29.453149 36.27377,65.026027 39.46209,68.4118 40.49944,70.16949 41.41238,70.16949 0.32012,0 0.58204,-15.57666 0.58204,-34.61481 z"
     id="path14"
     inkscape:connector-curvature="0" />
</svg>
