<?xml version="1.0" encoding="UTF-8" standalone="no"?>
<svg
   xmlns:dc="http://purl.org/dc/elements/1.1/"
   xmlns:cc="http://creativecommons.org/ns#"
   xmlns:rdf="http://www.w3.org/1999/02/22-rdf-syntax-ns#"
   xmlns:svg="http://www.w3.org/2000/svg"
   xmlns="http://www.w3.org/2000/svg"
   xmlns:sodipodi="http://sodipodi.sourceforge.net/DTD/sodipodi-0.dtd"
   xmlns:inkscape="http://www.inkscape.org/namespaces/inkscape"
   width="256px"
   height="244px"
   viewBox="0 0 256 244"
   version="1.1"
   preserveAspectRatio="xMidYMid"
   id="svg6"
   sodipodi:docname="4708018331551942292.svg"
   inkscape:version="0.92.4 (5da689c313, 2019-01-14)">
  <metadata
     id="metadata12">
    <rdf:RDF>
      <cc:Work
         rdf:about="">
        <dc:format>image/svg+xml</dc:format>
        <dc:type
           rdf:resource="http://purl.org/dc/dcmitype/StillImage" />
      </cc:Work>
    </rdf:RDF>
  </metadata>
  <defs
     id="defs10" />
  <sodipodi:namedview
     pagecolor="#ffffff"
     bordercolor="#666666"
     borderopacity="1"
     objecttolerance="10"
     gridtolerance="10"
     guidetolerance="10"
     inkscape:pageopacity="0"
     inkscape:pageshadow="2"
     inkscape:window-width="1920"
     inkscape:window-height="1017"
     id="namedview8"
     showgrid="false"
     inkscape:zoom="0.96721311"
     inkscape:cx="128"
     inkscape:cy="122"
     inkscape:window-x="-8"
     inkscape:window-y="-8"
     inkscape:window-maximized="1"
     inkscape:current-layer="svg6" />
  <g
     id="g4">
    <path
       d="M177.380953,169.732752 C186.828305,168.755405 193.995262,160.610839 193.669491,150.83736 C193.34372,141.063881 185.199451,133.245097 175.426328,133.245097 L174.774787,133.245097 C164.675893,133.57088 156.857395,142.041229 157.183166,152.14049 C157.508937,157.02723 159.463561,161.262404 162.395498,164.194448 C151.319292,186.021884 134.379213,201.985233 108.969093,215.342321 C91.7032429,224.464235 73.7858511,227.722061 55.8684592,225.441583 C41.208775,223.486887 29.8067984,216.971234 22.6398417,206.220408 C12.2151773,190.257058 11.237865,172.990579 20.0336756,155.724099 C26.22332,143.344359 35.9964428,134.222445 42.1860873,129.661488 C40.8830043,125.426314 38.9283797,118.259096 37.9510674,113.046574 C-9.28569288,147.253751 -4.39913147,193.514885 9.934782,215.342321 C20.6852171,231.631453 42.5118581,241.730715 66.6188943,241.730715 C73.1343096,241.730715 79.6497248,241.079149 86.16514,239.450236 C127.863797,231.30567 159.463561,206.54619 177.380953,169.732752 Z M234.716607,129.335706 C209.958029,100.341051 173.471704,84.3777023 131.773046,84.3777023 L126.560714,84.3777023 C123.628777,78.5136149 117.439133,74.6042233 110.597947,74.6042233 L109.946406,74.6042233 C99.8475119,74.9300059 92.0290137,83.4003544 92.3547844,93.499616 C92.6805552,103.273095 100.824824,111.091878 110.597947,111.091878 L111.249489,111.091878 C118.416445,110.766096 124.60609,106.205139 127.212256,100.015269 L133.07613,100.015269 C157.834707,100.015269 181.290202,107.182487 202.465302,121.19114 C218.75384,131.941967 230.481587,145.95062 236.997002,162.891317 C242.535105,176.574188 242.209334,189.931276 236.345461,201.333668 C227.223879,218.600148 211.912654,228.047844 191.714866,228.047844 C178.684036,228.047844 166.304747,224.138452 159.789332,221.206409 C156.205854,224.464235 149.690438,229.676757 145.129648,232.934584 C159.13779,239.450236 173.471704,243.033845 187.154076,243.033845 C218.428069,243.033845 241.557793,225.767366 250.353603,208.500886 C259.800955,189.605493 259.149414,157.02723 234.716607,129.335706 Z M69.2250604,175.271057 C69.5508312,185.044536 77.6951002,192.86332 87.468223,192.86332 L88.1197645,192.86332 C98.2186581,192.537537 106.037156,184.067188 105.711386,173.967927 C105.385615,164.194448 97.2413458,156.375664 87.468223,156.375664 L86.8166815,156.375664 C86.16514,156.375664 85.1878277,156.375664 84.5362862,156.701447 C71.179685,134.548228 65.6415821,110.440313 67.5962066,84.3777023 C68.8992897,64.8307442 75.4147049,47.8900472 86.8166815,33.881394 C96.2640336,21.8274365 114.507196,15.9633491 126.886485,15.6375664 C161.418186,14.9860012 176.07787,57.9893089 177.055182,75.2557885 C181.290202,76.2331364 188.457159,78.5136149 193.34372,80.142528 C189.434471,27.3657413 156.857395,0 125.583402,0 C96.2640336,0 69.2250604,21.1758712 58.4746253,52.4510041 C43.4891703,94.1511813 53.2622932,134.222445 71.5054558,165.823361 C69.876602,168.103839 68.8992897,171.687448 69.2250604,175.271057 Z"
       fill="#764ABC"
       id="path2" />
  </g>
  <path
     style="fill:#000000;stroke-width:1.03389835"
     d="m 83.669339,191.84845 c -8.132413,-1.82473 -13.575328,-8.82432 -13.551812,-17.42761 0.0087,-3.18562 0.394795,-6.38927 0.857973,-7.11924 0.524989,-0.82738 -1.010919,-5.07837 -4.078329,-11.28772 C 56.127755,134.21334 52.144276,117.32739 52.190223,93.671186 52.220602,78.030329 52.485843,75.609938 55.380176,64.562098 62.765509,36.371834 77.235534,16.988501 98.454766,6.8614953 122.60886,-4.6661926 147.63298,-0.33533352 166.86964,18.701882 c 11.28749,11.170457 18.39847,23.898134 22.63444,40.512483 1.57616,6.182092 3.6208,19.212061 3.10488,19.786742 -0.15872,0.176796 -3.58122,-0.678664 -7.60557,-1.90102 -7.0977,-2.155862 -7.33456,-2.335909 -7.90381,-6.007887 C 175.90361,63.377526 170.17512,47.44949 166.16231,40.681198 160.2415,30.694711 152.28743,22.952997 143.8342,18.949184 137.35712,15.881359 135.99499,15.619778 126.9661,15.709866 109.9489,15.879659 94.974819,22.962294 85.099968,35.512255 73.916659,49.725138 68.24426,66.641647 67.30725,88.574576 c -0.946022,22.143894 2.506577,39.487164 11.655769,58.549834 4.526681,9.4315 4.683749,9.61457 8.248803,9.61457 5.193532,0 9.820533,2.22428 13.613508,6.54423 11.05757,12.59388 -0.74607,32.24729 -17.155991,28.56524 z"
     id="path14"
     inkscape:connector-curvature="0" />
  <path
     style="fill:#000000;stroke-width:1.03389835"
     d="m 55.085928,240.56654 c -36.15114,-5.79657 -55.59778184,-29.04705 -53.98352,-64.54289 0.9264208,-20.37097 7.7589652,-34.68729 24.623524,-51.59399 5.53046,-5.54428 10.515911,-10.08051 11.078779,-10.08051 0.562867,0 1.827659,3.28187 2.810648,7.29305 l 1.787252,7.29304 -7.663487,7.95696 c -12.198869,12.66602 -17.335966,22.19547 -19.506539,36.18516 -2.889652,18.62425 8.215543,39.81529 25.033328,47.76885 9.342111,4.41812 15.903078,5.45463 31.290415,4.94328 11.814182,-0.39259 14.731431,-0.86723 23.325028,-3.79505 25.577544,-8.71424 49.459204,-26.8057 62.976214,-47.70742 l 6.07981,-9.40137 -2.60007,-4.65204 c -2.14831,-3.84374 -2.51841,-5.63677 -2.13008,-10.3196 0.79016,-9.52825 6.45095,-15.0452 16.04582,-15.6381 7.42815,-0.45902 13.08198,2.45944 16.51819,8.52652 5.72549,10.10912 -0.0853,23.59192 -11.19124,25.96704 -1.80434,0.38587 -3.29239,1.82983 -4.48687,4.35394 -3.47956,7.35278 -13.49405,21.37665 -20.62885,28.88773 -12.90602,13.58669 -28.85368,24.0638 -47.06873,30.92272 -16.721359,6.29645 -39.716978,9.65182 -52.309622,7.63268 z"
     id="path16"
     inkscape:connector-curvature="0" />
  <path
     style="fill:#000000;stroke-width:1.03389835"
     d="m 169.35593,240.59584 c -8.63439,-1.91976 -20.38145,-5.82989 -22.03591,-7.33486 -0.46255,-0.42075 2.17435,-3.1644 5.85977,-6.09698 l 6.70078,-5.33197 8.09785,2.74268 c 10.8974,3.69086 28.97928,4.63661 38.13281,1.9945 9.27963,-2.67851 15.48047,-6.48881 22.13285,-13.60022 16.29899,-17.42368 17.22383,-37.92618 2.83958,-62.95035 -4.97937,-8.66258 -19.0436,-23.06154 -28.64298,-29.32469 -20.32972,-13.26419 -44.34671,-20.819374 -66.18221,-20.819374 h -9.04694 l -2.76091,3.619734 c -4.02647,5.27898 -8.0544,7.02586 -15.0357,6.52088 -7.01949,-0.50774 -11.578593,-3.38094 -14.523072,-9.1526 -3.49952,-6.859621 -2.412512,-14.267457 2.932402,-19.983994 7.19647,-7.696825 18.55015,-7.58745 25.79801,0.248523 2.74275,2.965306 3.24682,3.088838 16.93496,4.150209 37.93229,2.941252 63.83447,14.26029 87.73092,38.337692 17.75792,17.8924 25.67501,34.10585 26.64829,54.57317 0.29638,6.23253 -0.009,13.25504 -0.74368,17.05932 -3.91534,20.29537 -20.3857,36.44829 -45.03173,44.16384 -10.43461,3.2666 -28.07901,3.79165 -39.80509,1.18449 z"
     id="path18"
     inkscape:connector-curvature="0" />
</svg>
