<?xml version="1.0" encoding="UTF-8" standalone="no"?>
<!-- Generator: Adobe Illustrator 19.0.0, SVG Export Plug-In . SVG Version: 6.00 Build 0)  -->

<svg
   xmlns:dc="http://purl.org/dc/elements/1.1/"
   xmlns:cc="http://creativecommons.org/ns#"
   xmlns:rdf="http://www.w3.org/1999/02/22-rdf-syntax-ns#"
   xmlns:svg="http://www.w3.org/2000/svg"
   xmlns="http://www.w3.org/2000/svg"
   xmlns:sodipodi="http://sodipodi.sourceforge.net/DTD/sodipodi-0.dtd"
   xmlns:inkscape="http://www.inkscape.org/namespaces/inkscape"
   version="1.1"
   id="Capa_1"
   x="0px"
   y="0px"
   viewBox="0 0 512 512"
   style="enable-background:new 0 0 512 512;"
   xml:space="preserve"
   sodipodi:docname="css3Icon.svg"
   inkscape:version="0.92.4 (5da689c313, 2019-01-14)"><metadata
   id="metadata41"><rdf:RDF><cc:Work
       rdf:about=""><dc:format>image/svg+xml</dc:format><dc:type
         rdf:resource="http://purl.org/dc/dcmitype/StillImage" /></cc:Work></rdf:RDF></metadata><defs
   id="defs39" /><sodipodi:namedview
   pagecolor="#ffffff"
   bordercolor="#666666"
   borderopacity="1"
   objecttolerance="10"
   gridtolerance="10"
   guidetolerance="10"
   inkscape:pageopacity="0"
   inkscape:pageshadow="2"
   inkscape:window-width="1920"
   inkscape:window-height="1017"
   id="namedview37"
   showgrid="false"
   inkscape:zoom="0.4609375"
   inkscape:cx="256"
   inkscape:cy="256"
   inkscape:window-x="1912"
   inkscape:window-y="-8"
   inkscape:window-maximized="1"
   inkscape:current-layer="Capa_1" />
<polygon
   style="fill:#2196F3;"
   points="32,0 72.8,460.8 256,512 439.136,460.832 480,0 "
   id="polygon2" />
<polygon
   style="fill:#FAFAFA;"
   points="392.768,150.688 387.616,208.576 372.064,382.112 256,414.208 255.904,414.24   139.904,382.112 131.808,291.36 188.64,291.36 192.864,338.432 255.936,355.456 255.968,355.424 319.136,338.4 327.744,259.968   129.088,260.512 123.456,206.88 332.512,204.416 336.736,147.008 117.856,147.616 114.176,94.208 256,94.208 397.824,94.208 "
   id="polygon4" />
<g
   id="g6">
</g>
<g
   id="g8">
</g>
<g
   id="g10">
</g>
<g
   id="g12">
</g>
<g
   id="g14">
</g>
<g
   id="g16">
</g>
<g
   id="g18">
</g>
<g
   id="g20">
</g>
<g
   id="g22">
</g>
<g
   id="g24">
</g>
<g
   id="g26">
</g>
<g
   id="g28">
</g>
<g
   id="g30">
</g>
<g
   id="g32">
</g>
<g
   id="g34">
</g>
<path
   style="fill:#000000;stroke-width:2.16949153"
   d="M 163.79661,485.60894 C 114.87458,471.8285 74.56965,460.34751 74.230107,460.09561 73.890562,459.84371 64.897063,360.66117 54.244554,239.69 43.592042,118.7188 34.369883,15.59322 33.750865,10.522034 L 32.625379,1.3016949 H 256 479.37462 l -1.13252,9.2203391 c -0.62288,5.071186 -9.85923,108.210966 -20.52523,229.199516 -10.666,120.98855 -19.65635,220.19182 -19.97854,220.45171 -1.23835,0.99887 -181.76211,50.94653 -183.3333,50.72499 -0.91259,-0.12868 -41.68639,-11.50885 -90.60842,-25.28931 z m 152.7713,-87.23244 c 30.32929,-8.3876 55.42792,-15.5339 55.77472,-15.88072 1.60065,-1.60063 26.19693,-287.016425 24.85901,-288.46429 -0.83508,-0.903697 -64.91995,-1.391833 -142.41083,-1.084746 l -140.8925,0.558341 0.44082,10.847455 c 0.24246,5.9661 1.05796,18.41356 1.81222,27.66102 l 1.37139,16.81356 H 226.9226 336.32247 l -1.05253,8.13559 c -0.57888,4.47458 -1.64171,16.52662 -2.36186,26.78232 l -1.30935,18.64673 -39.23189,1.42107 c -21.57755,0.78159 -68.5039,1.42107 -104.28078,1.42107 h -65.04888 l 1.44353,17.8983 c 0.79395,9.84407 2.03636,22.5356 2.76091,28.20339 l 1.31737,10.30509 h 99.09138 99.09137 l -4.14186,37.42373 c -2.27804,20.58305 -4.43944,37.74279 -4.80311,38.13278 -0.36367,0.38999 -14.41876,4.47429 -31.23354,9.07624 l -30.57234,8.36719 -27.65646,-7.52844 c -15.21105,-4.14065 -29.26397,-8.01462 -31.22869,-8.60885 -2.83134,-0.85634 -3.87592,-5.22693 -5.0365,-21.07322 -2.21217,-30.20466 0.78224,-27.58604 -31.54503,-27.58604 -15.36103,0 -28.30638,0.7322 -28.76743,1.62712 -0.85235,1.65445 6.73842,89.86242 7.82681,90.95081 1.88718,1.88717 115.89721,32.64711 118.5859,31.99451 1.78983,-0.43442 28.06912,-7.65243 58.39842,-16.04001 z"
   id="path43"
   inkscape:connector-curvature="0" /><path
   style="fill:none;stroke-width:2.16949153"
   d="m 198.61881,397.59579 c -65.65961,-18.38251 -57.9603,-10.90369 -61.79256,-60.02291 -1.34987,-17.30169 -2.96151,-34.66005 -3.58141,-38.57412 l -1.1271,-7.11649 27.77164,0.60802 27.77164,0.60802 2.16949,22.07431 c 1.19322,12.14087 2.67565,22.57245 3.29429,23.1813 0.61863,0.60882 14.97259,4.92895 31.89768,9.60026 l 30.77289,8.4933 30.89187,-8.33534 c 16.99053,-4.58442 31.53442,-9.07529 32.31976,-9.97966 1.36724,-1.57451 8.59494,-63.66042 8.58906,-73.77994 l -0.003,-4.88135 h -98.53949 -98.53948 l -1.14339,-5.96611 c -0.62886,-3.28135 -1.75274,-13.28813 -2.49751,-22.23728 -0.74476,-8.94916 -1.83801,-17.97966 -2.42942,-20.0678 -0.99524,-3.5139 1.80309,-3.79689 37.57936,-3.80042 21.26007,-0.002 68.56766,-0.64548 105.12798,-1.42973 l 66.47329,-1.42593 1.46536,-25.14654 c 0.80592,-13.83059 1.95534,-26.85501 2.55425,-28.94314 1.0268,-3.58009 -5.162,-3.79661 -108.51831,-3.79661 H 119.51865 l -1.06843,-7.05085 c -0.58764,-3.87797 -1.61384,-15.59322 -2.28046,-26.0339 l -1.21202,-18.983049 h 140.62567 140.62566 l -0.9165,13.559319 c -3.45569,51.12597 -24.2212,271.39766 -25.71583,272.7828 -1.4383,1.33293 -96.50502,28.38398 -111.40725,31.7007 -1.78983,0.39836 -28.58764,-6.36822 -59.55068,-15.03686 z"
   id="path24"
   inkscape:connector-curvature="0" /><path
   style="fill:none;stroke-width:2.16949153"
   d="m 198.61881,397.59579 c -65.65961,-18.38251 -57.9603,-10.90369 -61.79256,-60.02291 -1.34987,-17.30169 -2.96151,-34.66005 -3.58141,-38.57412 l -1.1271,-7.11649 27.77164,0.60802 27.77164,0.60802 2.16949,22.07431 c 1.19322,12.14087 2.67565,22.57245 3.29429,23.1813 0.61863,0.60882 14.97259,4.92895 31.89768,9.60026 l 30.77289,8.4933 30.89187,-8.33534 c 16.99053,-4.58442 31.53442,-9.07529 32.31976,-9.97966 1.36724,-1.57451 8.59494,-63.66042 8.58906,-73.77994 l -0.003,-4.88135 h -98.53949 -98.53948 l -1.14339,-5.96611 c -0.62886,-3.28135 -1.75274,-13.28813 -2.49751,-22.23728 -0.74476,-8.94916 -1.83801,-17.97966 -2.42942,-20.0678 -0.99524,-3.5139 1.80309,-3.79689 37.57936,-3.80042 21.26007,-0.002 68.56766,-0.64548 105.12798,-1.42973 l 66.47329,-1.42593 1.46536,-25.14654 c 0.80592,-13.83059 1.95534,-26.85501 2.55425,-28.94314 1.0268,-3.58009 -5.162,-3.79661 -108.51831,-3.79661 H 119.51865 l -1.06843,-7.05085 c -0.58764,-3.87797 -1.61384,-15.59322 -2.28046,-26.0339 l -1.21202,-18.983049 h 140.62567 140.62566 l -0.9165,13.559319 c -3.45569,51.12597 -24.2212,271.39766 -25.71583,272.7828 -1.4383,1.33293 -96.50502,28.38398 -111.40725,31.7007 -1.78983,0.39836 -28.58764,-6.36822 -59.55068,-15.03686 z"
   id="path25"
   inkscape:connector-curvature="0" /><path
   style="fill:none;stroke-width:2.16949153"
   d="m 198.61881,397.59579 c -65.65961,-18.38251 -57.9603,-10.90369 -61.79256,-60.02291 -1.34987,-17.30169 -2.96151,-34.66005 -3.58141,-38.57412 l -1.1271,-7.11649 27.77164,0.60802 27.77164,0.60802 2.16949,22.07431 c 1.19322,12.14087 2.67565,22.57245 3.29429,23.1813 0.61863,0.60882 14.97259,4.92895 31.89768,9.60026 l 30.77289,8.4933 30.89187,-8.33534 c 16.99053,-4.58442 31.53442,-9.07529 32.31976,-9.97966 1.36724,-1.57451 8.59494,-63.66042 8.58906,-73.77994 l -0.003,-4.88135 h -98.53949 -98.53948 l -1.14339,-5.96611 c -0.62886,-3.28135 -1.75274,-13.28813 -2.49751,-22.23728 -0.74476,-8.94916 -1.83801,-17.97966 -2.42942,-20.0678 -0.99524,-3.5139 1.80309,-3.79689 37.57936,-3.80042 21.26007,-0.002 68.56766,-0.64548 105.12798,-1.42973 l 66.47329,-1.42593 1.46536,-25.14654 c 0.80592,-13.83059 1.95534,-26.85501 2.55425,-28.94314 1.0268,-3.58009 -5.162,-3.79661 -108.51831,-3.79661 H 119.51865 l -1.06843,-7.05085 c -0.58764,-3.87797 -1.61384,-15.59322 -2.28046,-26.0339 l -1.21202,-18.983049 h 140.62567 140.62566 l -0.9165,13.559319 c -3.45569,51.12597 -24.2212,271.39766 -25.71583,272.7828 -1.4383,1.33293 -96.50502,28.38398 -111.40725,31.7007 -1.78983,0.39836 -28.58764,-6.36822 -59.55068,-15.03686 z"
   id="path27"
   inkscape:connector-curvature="0" /></svg>