<?xml version="1.0" encoding="UTF-8" standalone="no"?>
<svg
   xmlns:dc="http://purl.org/dc/elements/1.1/"
   xmlns:cc="http://creativecommons.org/ns#"
   xmlns:rdf="http://www.w3.org/1999/02/22-rdf-syntax-ns#"
   xmlns:svg="http://www.w3.org/2000/svg"
   xmlns="http://www.w3.org/2000/svg"
   xmlns:sodipodi="http://sodipodi.sourceforge.net/DTD/sodipodi-0.dtd"
   xmlns:inkscape="http://www.inkscape.org/namespaces/inkscape"
   width="256px"
   height="100px"
   viewBox="0 0 256 100"
   version="1.1"
   preserveAspectRatio="xMidYMid"
   id="svg12"
   sodipodi:docname="11916725311551942629.svg"
   inkscape:version="0.92.4 (5da689c313, 2019-01-14)">
  <metadata
     id="metadata18">
    <rdf:RDF>
      <cc:Work
         rdf:about="">
        <dc:format>image/svg+xml</dc:format>
        <dc:type
           rdf:resource="http://purl.org/dc/dcmitype/StillImage" />
      </cc:Work>
    </rdf:RDF>
  </metadata>
  <defs
     id="defs16" />
  <sodipodi:namedview
     pagecolor="#ffffff"
     bordercolor="#666666"
     borderopacity="1"
     objecttolerance="10"
     gridtolerance="10"
     guidetolerance="10"
     inkscape:pageopacity="0"
     inkscape:pageshadow="2"
     inkscape:window-width="1920"
     inkscape:window-height="1017"
     id="namedview14"
     showgrid="false"
     inkscape:zoom="1.3398438"
     inkscape:cx="128"
     inkscape:cy="50"
     inkscape:window-x="-8"
     inkscape:window-y="-8"
     inkscape:window-maximized="1"
     inkscape:current-layer="svg12" />
  <g
     id="g10">
    <path
       d="M0,0 L0,85.4980695 L71.1660232,85.4980695 L71.1660232,99.8301158 L128,99.8301158 L128,85.4980695 L256,85.4980695 L256,0 L0,0 L0,0 Z"
       id="path2"
       fill="#CB3837" />
    <path
       d="M42.5019305,14.3320463 L14.3320463,14.3320463 L14.3320463,28.6640927 L14.3320463,71.1660232 L42.5019305,71.1660232 L42.5019305,28.6640927 L56.8339768,28.6640927 L56.8339768,71.1660232 L71.1660232,71.1660232 L71.1660232,28.6640927 L71.1660232,14.3320463 L42.5019305,14.3320463 L42.5019305,14.3320463 Z"
       id="path4"
       fill="#FFFFFF" />
    <path
       d="M85.4980695,14.3320463 L85.4980695,68.2007722 L85.4980695,71.1660232 L85.4980695,85.4980695 L114.162162,85.4980695 L114.162162,71.1660232 L142.332046,71.1660232 L142.332046,14.3320463 L85.4980695,14.3320463 L85.4980695,14.3320463 Z M128,56.8339768 L114.162162,56.8339768 L114.162162,28.6640927 L128,28.6640927 L128,56.8339768 L128,56.8339768 Z"
       id="path6"
       fill="#FFFFFF" />
    <path
       d="M184.833977,14.3320463 L156.664093,14.3320463 L156.664093,28.6640927 L156.664093,71.1660232 L184.833977,71.1660232 L184.833977,28.6640927 L199.166023,28.6640927 L199.166023,71.1660232 L213.498069,71.1660232 L213.498069,28.6640927 L227.830116,28.6640927 L227.830116,71.1660232 L242.162162,71.1660232 L242.162162,28.6640927 L242.162162,15.3204633 L242.162162,14.3320463 L184.833977,14.3320463 L184.833977,14.3320463 Z"
       id="path8"
       fill="#FFFFFF" />
  </g>
  <path
     style="fill:#000000;stroke-width:0.74635571"
     d="M 71.276968,92.61691 V 85.526531 H 35.825073 0.37317784 V 42.984257 0.44198251 H 128 255.62682 V 42.984257 85.526531 H 191.81341 128 v 7.090379 7.090379 H 99.638484 71.276968 Z M 114.5656,78.436152 v -7.090379 h 14.18076 14.18075 V 42.611079 13.876385 H 114.19242 85.457726 V 49.701458 85.526531 H 100.01166 114.5656 Z M 42.915452,50.074636 V 28.803499 h 6.717201 6.717201 v 21.271137 21.271137 h 7.463557 7.463557 V 42.611079 13.876385 H 42.542274 13.80758 v 28.734694 28.734694 h 14.553936 14.553936 z m 142.553938,0 V 28.803499 h 6.7172 6.7172 v 21.271137 21.271137 h 7.46356 7.46355 V 50.074636 28.803499 h 6.7172 6.71721 v 21.271137 21.271137 h 7.46355 7.46356 V 42.611079 13.876385 h -42.91545 -42.91545 v 28.734694 28.734694 h 14.55393 14.55394 z"
     id="path20"
     inkscape:connector-curvature="0" />
  <path
     style="fill:#000000;stroke-width:0.74635571"
     d="M 114.5656,42.611079 V 28.803499 H 121.2828 128 v 13.80758 13.80758 h -6.7172 -6.7172 z"
     id="path22"
     inkscape:connector-curvature="0" />
</svg>
